<?xml version="1.0"?>
<svg width="416" height="560" xmlns="http://www.w3.org/2000/svg" xmlns:svg="http://www.w3.org/2000/svg" preserveAspectRatio="xMidYMid meet" version="1.0">

 <g class="layer" display="inline">
  <title>Layer 1</title>
  <g fill="none" id="svg_1" stroke="#c770f0" stroke-width="20" transform="matrix(1, 0, 0, 1, 0, 0) matrix(0.1, 0, 0, -0.1, 0, 560)">
   <path d="m1953,5059c-5,-5 -40,-16 -76,-24c-36,-7 -80,-21 -99,-31c-82,-42 -158,-126 -191,-212c-20,-50 -40,-187 -38,-258c1,-45 -2,-52 -23,-62c-59,-27 -83,-127 -48,-205c21,-47 73,-90 97,-80c8,3 16,-8 20,-29c12,-55 45,-109 103,-170l56,-58l-41,-40c-23,-21 -44,-48 -48,-60c-5,-17 -15,-20 -60,-20c-75,0 -205,-27 -234,-48c-13,-9 -29,-32 -35,-49c-6,-18 -26,-43 -45,-55c-40,-26 -92,-108 -116,-182c-34,-102 -104,-395 -135,-564c-30,-159 -31,-174 -17,-196c9,-14 32,-28 53,-33l38,-8l2,-160c3,-199 27,-413 60,-515c38,-122 107,-192 202,-206l43,-6l-2,-618c-1,-441 2,-623 10,-638c18,-33 73,-42 275,-42l188,0l34,34l34,34l0,309c0,171 3,425 7,566l6,257l34,0l34,0l-3,-82c-1,-46 -2,-300 0,-565l2,-483l29,-32l29,-33l216,0l216,1l26,26l26,26l-1,621l-2,621l26,0c15,0 49,10 76,22c133,57 186,230 196,639l5,226l44,11c78,21 78,13 -7,408c-79,372 -114,466 -200,555c-27,27 -56,63 -65,78c-28,47 -125,80 -237,81c-58,0 -59,0 -115,60l-57,59l47,41c43,36 118,161 118,194c0,7 14,16 32,21c17,6 45,27 62,48c25,31 31,49 34,101c5,74 -13,118 -57,140c-22,12 -27,21 -24,38c7,36 -25,232 -48,293c-33,87 -85,145 -170,188c-41,20 -96,41 -122,46c-27,5 -54,14 -60,20c-14,14 -90,14 -104,0zm94,-145c3,-9 2,-28 -3,-43c-18,-51 -94,-32 -94,24c0,27 11,33 58,34c21,1 35,-5 39,-15zm73,-349c36,-7 97,-27 135,-44l70,-30l3,-127c3,-149 -8,-214 -47,-276c-61,-96 -215,-153 -347,-129c-115,22 -188,76 -233,171c-23,50 -25,70 -29,210l-4,156l93,32c157,54 243,63 359,37zm-534,-293c-3,-2 -12,1 -21,8c-22,18 -21,106 3,119c15,9 17,3 20,-56c2,-36 1,-68 -2,-71zm866,103c14,-30 -4,-100 -27,-109c-12,-4 -15,7 -15,64c0,56 3,70 15,70c9,0 21,-11 27,-25zm-447,-515c22,0 64,6 93,14l52,13l0,-27c0,-28 -36,-67 -107,-114l-41,-28l-54,35c-66,42 -86,65 -94,104l-6,31l58,-14c33,-7 77,-14 99,-14zm314,-576c24,-5 31,-12 31,-30c0,-28 -7,-30 -32,-7c-15,14 -19,14 -16,3c2,-8 14,-21 28,-28l25,-12l-25,6c-14,3 -37,8 -52,11c-23,4 -28,11 -28,34c0,31 10,35 69,23zm-847,-518c8,5 9,-1 5,-17c-4,-13 -7,-35 -8,-49c-2,-44 -18,51 -17,100l1,45l4,-43c3,-28 8,-40 15,-36zm-157,-120l70,-12l3,-194c2,-158 5,-195 17,-204c13,-9 15,-39 13,-181l-3,-170l-35,3c-19,1 -45,10 -58,18c-64,42 -109,256 -119,572l-6,182l24,-1c13,0 56,-6 94,-13zm1482,-178c-11,-365 -60,-551 -153,-577c-64,-18 -64,-17 -64,164c0,131 3,165 15,175c12,10 15,50 17,209l3,196l70,11c39,7 81,12 94,13l24,1l-6,-192zm-703,-283c3,-8 3,-29 -1,-45l-6,-31l-91,3l-91,3l-3,43l-3,42l94,0c75,0 96,-3 101,-15z" id="svg_2"/>
   <path d="m1810,4440c-30,-30 -28,-113 2,-134c53,-37 94,2 85,81c-7,69 -47,93 -87,53z" id="svg_3"/>
   <path d="m2133,4445c-19,-13 -23,-26 -23,-66c0,-106 96,-123 106,-18c8,78 -33,119 -83,84z" id="svg_4"/>
   <path d="m1975,4150c28,-12 73,-12 80,0c4,6 -14,10 -47,9c-39,0 -48,-3 -33,-9z" id="svg_5"/>
  </g>
  <path d="m231.63,228.16c-0.31,1.05 -0.86,1.73 -1.5,2.26c-0.68,0.57 -1.44,0.98 -2.15,1.49c-0.73,0.52 -1.34,1.02 -2.14,1.55c-0.86,0.57 -1.47,1.08 -2.32,1.58c-0.75,0.44 -2.03,0.82 -1.81,1.16c0.47,0.69 1.56,-0.92 2.28,-1.46c0.65,-0.48 1.41,-1.03 2,-1.41c0.87,-0.57 1.56,-0.99 2.35,-1.55c0.68,-0.48 1.41,-0.94 2.18,-1.38c0.79,-0.46 1.58,-0.96 2.37,-1.41c0.75,-0.43 1.48,-1.02 2.21,-1.61c0.57,-0.46 2.42,-0.76 2,-1.56c-0.36,-0.68 -1.48,0.37 -2.42,0.71c-0.95,0.34 -1.74,0.72 -2.57,1.1c-0.7,0.32 -1.42,0.61 -2.41,1.11c-0.61,0.3 -1.47,0.88 -2.22,1.35c-0.82,0.51 -1.48,1.19 -0.77,1.16c0.8,-0.04 1.67,-0.35 2.46,-0.57c1.06,-0.3 1.67,-0.57 2.78,-0.84c0.68,-0.16 1.62,-0.27 2.56,-0.44c0.71,-0.12 1.61,-0.33 2.65,-0.41c0.75,-0.06 1.78,-0.06 2.52,-0.03c1,0.04 0.66,0.84 -0.07,1.38c-0.74,0.55 -1.48,0.88 -2.24,1.3c-0.74,0.41 -1.42,0.87 -2.38,1.37c-0.63,0.33 -1.52,0.73 -2.36,1.16c-0.79,0.4 -1.56,0.8 -2.37,1.15c-0.81,0.35 -1.6,0.71 -2.36,1.11c-0.92,0.48 -1.63,0.84 -2.59,1.18c-0.7,0.25 -1.67,0.56 -1.58,0.59c0.82,0.31 1.75,-0.61 2.57,-0.88c0.94,-0.31 1.58,-0.53 2.26,-0.74c1.18,-0.35 1.89,-0.51 2.6,-0.67c1.18,-0.27 1.89,-0.43 2.84,-0.59c0.93,-0.16 1.6,-0.21 2.7,-0.38c0.85,-0.13 0.99,-0.14 0.29,0.02c-0.95,0.21 -1.68,0.44 -2.72,0.62c-0.69,0.12 -1.47,0.2 -2.62,0.36c-0.63,0.09 -1.62,0.23 -2.65,0.31c-0.68,0.05 -1.71,0.08 -2.39,0.1c-1.03,0.03 -2.05,0.08 -2.73,0.12c-0.67,0.05 -2,0.15 -2.64,0.2c-0.93,0.07 -2.05,0.15 -2.8,0.17c-0.86,0.02 -2.53,-0.82 -2.75,0.02c-0.03,0.12 0.99,-0.23 1.76,-0.39c0.9,-0.19 1.75,-0.34 2.43,-0.52c1.19,-0.3 1.89,-0.55 2.62,-0.75c1,-0.28 1.76,-0.43 2.51,-0.6c1.17,-0.26 1.82,-0.42 2.83,-0.68c0.75,-0.2 1.76,-0.45 2.58,-0.66c0.88,-0.22 1.04,-0.56 0.28,-0.42c-0.86,0.16 -1.66,0.28 -2.71,0.45c-0.77,0.12 -1.61,0.27 -2.5,0.47c-0.88,0.2 -1.67,0.43 -2.72,0.69c-0.73,0.18 -2.71,-0.26 -2.58,0.65c0.05,0.35 1.32,-0.2 2.21,-0.42c0.7,-0.18 1.73,-0.44 2.43,-0.6c0.74,-0.17 1.95,-0.47 2.63,-0.69c0.88,-0.28 1.77,-0.56 2.45,-0.72c1.06,-0.25 1.97,-0.37 2.87,-0.62c0.79,-0.22 1.39,-0.39 0.53,-0.09c-0.79,0.27 -1.57,0.55 -2.47,0.83c-0.82,0.25 -1.71,0.54 -2.39,0.75c-1.11,0.33 -1.75,0.49 -2.75,0.76c-0.76,0.21 -1.69,0.47 -2.43,0.68c-1.11,0.32 -1.83,0.52 -2.77,0.8c-0.76,0.23 -0.58,0.16 0.14,-0.18c0.88,-0.41 1.57,-0.63 2.33,-0.86c1.09,-0.33 1.94,-0.56 2.52,-0.7c1.19,-0.3 2.11,-0.47 2.74,-0.59c0.96,-0.18 1.94,-0.37 2.61,-0.51c1.02,-0.22 1.72,-0.37 2.78,-0.56c0.71,-0.13 1.77,-0.29 2.44,-0.38c1.21,-0.16 1.98,-0.27 3,-0.35c0.71,-0.05 1.61,0.04 0.87,0.42c-0.74,0.38 -1.71,0.83 -2.38,1.11c-0.72,0.3 -1.78,0.67 -2.34,0.83c-0.86,0.25 -2.06,0.56 -2.68,0.72c-0.94,0.24 -1.59,0.41 -2.57,0.69c-1,0.28 -1.66,0.49 -2.32,0.66c-1.26,0.33 -1.86,0.45 -2.72,0.62c-1.07,0.22 -1.82,0.38 -2.77,0.56c-0.89,0.17 -1.74,0.2 -2.76,0.56c-0.7,0.25 0.2,0.08 0.97,-0.07c0.92,-0.17 1.62,-0.27 2.79,-0.42c0.6,-0.08 1.76,-0.23 2.44,-0.34c0.96,-0.15 1.74,-0.32 2.76,-0.38c0.95,-0.05 1.99,0.22 1.6,1.08c-0.31,0.69 -1.21,1.14 -1.98,1.54c-0.79,0.4 -1.54,0.7 -2.45,1.1c-0.81,0.36 -1.7,0.76 -1.18,0.7c0.75,-0.08 1.61,-0.41 2.38,-0.59c0.95,-0.23 1.79,-0.37 2.69,-0.54c0.94,-0.18 1.89,-0.39 2.52,-0.54c0.95,-0.23 1.89,-0.47 2.84,-0.71c0.63,-0.16 1.85,-0.47 2.45,-0.63c0.89,-0.23 1.47,-0.4 2.63,-0.65c0.85,-0.19 1.68,-0.34 2.66,-0.5c0.83,-0.13 2.37,-0.91 2.45,-0.26c0.11,0.84 -1.8,0.53 -2.48,0.73c-0.74,0.22 -1.73,0.48 -2.59,0.68c-0.93,0.22 -1.67,0.37 -2.43,0.53c-1.01,0.21 -1.99,0.42 -2.72,0.58c-1,0.21 -1.78,0.37 -2.58,0.53c-1.1,0.21 -1.94,0.37 -2.49,0.46c-1.26,0.21 -1.94,0.29 -2.93,0.44c-0.84,0.12 -1.85,0.21 -1.32,-0.04c0.71,-0.34 1.53,-0.6 2.29,-0.88c0.99,-0.36 1.77,-0.59 2.49,-0.82c1.01,-0.31 1.97,-0.64 2.75,-0.89c0.84,-0.27 2.7,0.01 2.54,-0.79c-0.16,-0.81 -1.59,0.35 -2.55,0.62c-0.81,0.24 -1.57,0.44 -2.51,0.74c-0.79,0.26 -1.74,0.5 -2.5,0.66c-0.9,0.18 -2.39,0.18 -2.26,0.59c0.28,0.84 1.62,-0.56 2.44,-0.89c0.78,-0.32 1.64,-0.69 2.5,-1.02c0.79,-0.3 1.66,-0.7 2.32,-1.08l0.8,-0.55l0.73,-0.6l0.58,-0.67" fill="none" id="svg_9" stroke="#ffffff" stroke-width="5" transform="matrix(1, 0, 0, 1, 0, 0)"/>
  <path d="m142.16,270.79c0.53,0.93 0.89,1.73 1.28,2.54c0.38,0.8 0.88,1.55 1.25,2.27c0.4,0.77 0.72,1.63 0.95,2.36c0.32,0.97 0.59,1.79 1.04,2.83c0.27,0.64 0.6,1.26 1.06,2.32c0.27,0.63 0.61,1.5 1.05,2.39c0.34,0.69 0.72,1.36 1.31,2.4c0.33,0.58 0.86,1.5 1.28,2.24c0.53,0.92 0.81,1.49 1.26,2.17c0.59,0.89 1.33,1.62 1.67,2.27c0.45,0.85 0.81,1.13 0.69,0.23c-0.1,-0.75 -0.4,-1.6 -0.6,-2.41c-0.26,-1.03 -0.34,-1.78 -0.66,-2.69c-0.26,-0.74 -0.66,-1.6 -1.09,-2.39c-0.43,-0.8 -0.86,-1.43 -1.38,-2.27c-0.43,-0.7 -0.97,-1.56 -1.48,-2.13c-0.71,-0.79 -1.28,-1.35 -2.05,-2c-0.61,-0.52 -1.35,-1.07 -2.1,-1.53c-0.78,-0.47 -1.52,-1.56 -2.36,-1.33c-0.58,0.16 -0.23,1.33 0.07,2.23c0.25,0.77 0.49,1.7 0.79,2.53c0.31,0.88 0.58,1.62 0.77,2.45c0.23,0.99 0.07,2.79 0.95,2.58c0.45,-0.11 -0.03,-1.43 -0.2,-2.22c-0.2,-0.95 -0.42,-1.62 -0.65,-2.57c-0.25,-0.99 -0.47,-1.75 -0.72,-2.57c-0.27,-0.87 -0.53,-1.71 -0.83,-2.57c-0.29,-0.84 -0.51,-1.74 -0.82,-2.53c-0.33,-0.84 -0.25,-0.4 -0.01,0.39c0.25,0.84 0.46,1.69 0.62,2.4c0.27,1.25 0.42,2 0.58,2.73c0.21,0.98 0.37,1.74 0.53,2.51c0.21,1.02 0.41,2 0.59,2.72c0.24,0.95 0.47,1.65 0.75,2.56c0.26,0.84 0.48,1.62 0.81,2.73c0.21,0.72 0.62,1.68 0.94,2.38c0.38,0.81 0.58,2.49 1.27,2.17c0.79,-0.37 0.12,-1.73 -0.05,-2.61c-0.17,-0.9 -0.52,-1.64 -0.8,-2.57c-0.25,-0.83 -0.6,-1.57 -0.97,-2.58c-0.26,-0.7 -0.48,-1.59 -0.77,-2.41c-0.34,-0.96 -0.67,-1.57 -1.07,-2.47c-0.35,-0.78 -0.63,-1.6 -0.93,-2.48c-0.29,-0.85 -0.37,-2.37 -0.86,-2.17c-0.81,0.32 0.69,1.59 1.05,2.28c0.49,0.94 0.79,1.63 1.11,2.5c0.3,0.83 0.54,1.75 0.77,2.55c0.3,1.05 0.53,1.67 0.81,2.5c0.33,0.98 0.54,1.71 0.86,2.65c0.32,0.91 0.31,1.81 0.92,2.53c0.37,0.43 0.5,-0.58 0.5,-1.38l0,-0.95l-0.09,-0.9l-0.15,-0.86" fill="none" id="svg_11" stroke="#ffffff" stroke-width="5" transform="matrix(1, 0, 0, 1, 0, 0)"/>
  <path d="m211.37,340.79c-1.4,-0.08 -2.17,-0.38 -3.06,-0.7c-0.89,-0.32 -1.7,-0.51 -2.62,-0.75c-0.7,-0.18 -1.61,-0.47 -2.36,-0.66c-0.95,-0.24 -1.76,-0.36 -2.53,-0.48c-1,-0.15 -1.93,-0.33 -2.86,-0.44c-0.96,-0.11 -1.66,-0.13 -2.67,-0.14c-0.88,0 -1.8,0.01 -2.53,0c-1.06,-0.02 -1.89,-0.16 -2.84,-0.23c-0.8,-0.06 -1.64,-0.03 -2.5,-0.03c-1.03,0 -1.92,0.08 -2.82,0.22c-0.85,0.13 -1.59,0.82 -1,1.18c0.72,0.43 1.63,0.32 2.57,0.45c0.81,0.11 1.66,0.21 2.56,0.32c0.93,0.11 1.87,0.22 2.82,0.31c0.72,0.07 1.71,0.13 2.48,0.15c0.79,0.02 1.89,0.06 2.73,0.12c0.84,0.06 1.91,0.18 2.66,0.25c0.73,0.07 1.91,0.15 2.62,0.16c1.15,0.02 1.81,0.01 2.65,0.01c0.99,0 1.91,0 2.85,0c0.91,0 1.58,-0.02 0.79,0.14c-0.88,0.18 -1.73,0.43 -2.59,0.7c-0.83,0.26 -1.67,0.52 -2.58,0.8c-0.8,0.24 -1.67,0.53 -2.35,0.74c-1.06,0.34 -1.86,0.58 -2.71,0.73c-0.94,0.17 -1.68,0.22 -2.65,0.33c-0.9,0.1 -1.96,0.24 -2.59,0.31c-0.84,0.1 -1.89,0.17 -2.71,0.18c-0.91,0.01 -1.77,0.02 -2.7,0c-0.98,-0.02 -0.53,-0.6 0.41,-0.82c0.77,-0.18 1.64,-0.32 2.46,-0.45c0.93,-0.14 1.76,-0.24 2.64,-0.28c0.92,-0.05 1.63,-0.03 2.81,-0.03c0.71,0 1.66,-0.01 2.61,0c0.71,0.01 1.66,0.04 2.59,0.13c0.68,0.07 1.72,0.2 2.67,0.34c0.92,0.13 1.63,0.23 2.57,0.49c0.98,0.27 2.45,0.46 2.15,1.14c-0.33,0.73 -1.76,0.51 -2.5,0.53c-0.86,0.03 -1.7,0 -2.62,0c-1,0 -1.75,0 -2.76,0c-0.94,0 -1.73,0.02 -2.65,0c-0.96,-0.02 -1.71,-0.11 -2.66,-0.31c-0.94,-0.21 -2.7,0.05 -2.53,-0.74c0.16,-0.77 1.74,0.48 2.35,0.73c1,0.42 1.72,0.64 2.64,0.9c0.74,0.21 1.7,0.47 2.51,0.69c0.82,0.22 1.79,0.58 2.57,0.85c0.82,0.29 1.71,0.51 2.37,0.67c1.04,0.26 1.8,0.48 2.73,0.66c0.92,0.18 1.84,0.26 2.7,0.42c0.89,0.16 1.77,0.35 1.32,0.25c-0.93,-0.22 -1.66,-0.51 -2.67,-0.72c-0.7,-0.15 -1.75,-0.29 -2.41,-0.39c-1.02,-0.16 -1.73,-0.27 -2.84,-0.42c-0.74,-0.1 -1.66,-0.18 -2.6,-0.22c-0.81,-0.04 -1.67,-0.12 -2.55,-0.18c-0.97,-0.07 -1.82,-0.06 -2.69,-0.08c-0.89,-0.01 -1.89,-0.14 -2.77,-0.22c-0.82,-0.07 -2.28,-0.83 -2.68,0c-0.24,0.5 1.25,0.44 2.06,0.53c0.77,0.08 1.7,0.21 2.73,0.22c0.7,0 1.7,0 2.46,0c1,0 1.99,0.09 2.76,0.17c0.94,0.1 1.71,0.06 2.7,0.1c0.86,0.04 2.56,-0.4 2.65,0.51c0.05,0.54 -1.2,0.28 -2.21,0.28c-0.8,0 -1.66,0 -2.44,0c-1.16,0 -1.96,0 -2.79,0c-1.1,0 -1.92,0 -2.46,-0.03c-1.1,-0.06 -1.95,-0.2 -2.85,-0.34c-0.95,-0.15 -1.97,-0.31 -2.66,-0.41c-0.69,-0.1 -1.98,-0.26 -2.57,-0.33c-0.82,-0.09 -2.05,-0.22 -2.72,-0.3c-0.8,-0.1 -1.78,-0.26 -2.72,-0.47c-0.88,-0.2 -1.54,-0.89 -0.88,-1.18c0.82,-0.37 1.86,-0.33 2.67,-0.34c0.97,-0.01 1.63,-0.02 2.84,0.04c0.76,0.04 1.55,0.12 2.63,0.22c0.84,0.08 1.4,0.12 2.25,0.23c1.11,0.14 1.92,0.3 2.75,0.45c0.86,0.16 1.76,0.32 2.66,0.46c0.89,0.14 1.73,0.23 2.54,0.34c1.02,0.13 2.01,0.32 2.74,0.47c0.99,0.21 1.75,0.36 2.49,0.53c1.14,0.25 1.93,0.47 2.86,0.74c0.73,0.21 1.73,0.44 2.53,0.66c0.85,0.23 0.47,0.25 -0.23,-0.04c-0.88,-0.36 -1.61,-0.76 -2.47,-1.13c-0.87,-0.38 -1.62,-0.72 -2.49,-1.06l-0.79,-0.26" fill="none" id="svg_12" stroke="#ffffff" stroke-width="5"/>
  <rect fill="#ffffff" height="14.47" id="svg_15" stroke="#c770f0" stroke-dasharray="null" stroke-linecap="null" stroke-linejoin="null" stroke-width="2" width="116.58" x="141.63" y="341.58"/>
  <rect fill="#ffffff" height="11.84" id="svg_13" stroke="#c770f0" stroke-width="2" width="17.37" x="191.55" y="342.89"/>
 </g>
</svg>